<svg id="Layer_1" data-name="Layer 1" xmlns="http://www.w3.org/2000/svg" viewBox="0 0 143.14 92.12"><defs><style>.cls-1{fill:none;stroke:#fff;stroke-miterlimit:10;stroke-width:4px;}.cls-2{fill:#fff;}</style></defs><title>baike_bicycle</title><circle class="cls-1" cx="29.03" cy="63.09" r="27.03"/><line class="cls-1" x1="29.03" y1="34.26" x2="29.03" y2="91.92"/><line class="cls-1" x1="0.2" y1="63.09" x2="57.86" y2="63.09"/><line class="cls-1" x1="8.65" y1="42.71" x2="49.41" y2="83.47"/><line class="cls-1" x1="8.65" y1="83.47" x2="49.41" y2="42.71"/><circle class="cls-1" cx="114.11" cy="63.07" r="27.03"/><line class="cls-1" x1="114.11" y1="34.24" x2="114.11" y2="91.9"/><line class="cls-1" x1="85.28" y1="63.07" x2="142.93" y2="63.07"/><line class="cls-1" x1="93.72" y1="42.68" x2="134.49" y2="83.45"/><line class="cls-1" x1="93.72" y1="83.45" x2="134.49" y2="42.68"/><path class="cls-1" d="M261.55,159.48,223,162.29a5.23,5.23,0,0,0-4.85,5.22h0a5.23,5.23,0,0,0,4.85,5.22l38.54,2.8a8,8,0,0,0,8.63-8h0A8,8,0,0,0,261.55,159.48Z" transform="translate(-194.53 -104.42)"/><path class="cls-2" d="M223.56,165.7a1.8,1.8,0,1,1-1.8,1.8,1.81,1.81,0,0,1,1.8-1.8m0-4a5.8,5.8,0,1,0,5.8,5.8,5.8,5.8,0,0,0-5.8-5.8Z" transform="translate(-194.53 -104.42)"/><path class="cls-2" d="M308.8,165.7a1.8,1.8,0,1,1-1.8,1.8,1.81,1.81,0,0,1,1.8-1.8m0-4a5.8,5.8,0,1,0,5.8,5.8,5.8,5.8,0,0,0-5.8-5.8Z" transform="translate(-194.53 -104.42)"/><path class="cls-1" d="M262.06,167.51h-38.5l27.65-27.71,42.18-9.67C268,146.38,262.06,167.51,262.06,167.51Z" transform="translate(-194.53 -104.42)"/><line class="cls-1" x1="50.87" y1="21.84" x2="67.54" y2="63.09"/><polyline class="cls-1" points="114.27 63.09 94.3 13.43 104.31 13.39"/><line class="cls-1" x1="98.14" y1="2" x2="86.22" y2="2"/><line class="cls-1" x1="104.31" y1="13.39" x2="98.14" y2="2"/><circle class="cls-1" cx="67.54" cy="63.09" r="6.96"/><path class="cls-1" d="M252.51,122.19H236.88l4.56,5.89,11.41-3.63A1.16,1.16,0,0,0,252.51,122.19Z" transform="translate(-194.53 -104.42)"/><line class="cls-1" x1="67.54" y1="63.09" x2="67.54" y2="76.88"/><line class="cls-1" x1="60.83" y1="76.88" x2="67.54" y2="76.88"/></svg>