<svg xmlns="http://www.w3.org/2000/svg" viewBox="0 0 152.29 40.2"><title>logo</title><path d="M238.73,140.28H223V101.47h13.74c7.26,0,13.08,2.34,13.08,10.68,0,4.08-2.64,6.78-6.18,7.8,4.8.66,8,3.54,8,9C251.63,137.82,245.57,140.28,238.73,140.28Zm-2-33h-6.18v10.14h7c2.64,0,4.56-1.74,4.56-5.22C242.15,109.63,241,107.29,236.75,107.29Zm1,15.9h-7.14v11.28h7.8c2.94,0,5.52-1.26,5.52-5.52S241.13,123.19,237.71,123.19Z" transform="translate(-181.48 -100.87)" fill="#3e6990"/><path d="M271.19,140.28c-.06-.42-1-2.64-1-3.24a9.55,9.55,0,0,1-7.68,3.9c-5.52,0-10-2.34-10-7.86s3.06-9.48,14.7-9.48h2.64v-2.1c0-3.66-1.26-6.24-5.46-6.24a20.69,20.69,0,0,0-9.36,2.4l-1.38-3.36a29.83,29.83,0,0,1,10.8-2.1c5.64,0,9.36,2.82,9.36,8.82v10.86c0,2.16.48,5,.84,8.4Zm-1.26-13.74h-1.86c-8.64,0-11.4,2-11.4,6.42,0,3.06,2.28,4.92,6.24,4.92a7.82,7.82,0,0,0,7-3.66Z" transform="translate(-181.48 -100.87)" fill="#3e6990"/><path d="M277.55,106.15v-4.68h4.32v4.68Zm.24,34.14V112.87h3.9v27.42Z" transform="translate(-181.48 -100.87)" fill="#3e6990"/><path d="M301.67,140.28l-10-13.74v13.74h-6.78V100.87h6.78v22.8l9-10.8H308l-10,11.88,11.4,15.54Z" transform="translate(-181.48 -100.87)" fill="#3e6990"/><path d="M314.93,129.18c.54,4.38,2.82,6.84,6.6,6.84a20.3,20.3,0,0,0,8.58-2.34l2.22,5.22a28.41,28.41,0,0,1-11.28,2.16c-8.88,0-13.26-6.6-13.26-14.22,0-6.36,2.88-14.76,13-14.76,9.54,0,13,5.64,13,17.1Zm5.82-11.88c-2.22,0-5.58,1.32-5.82,7h12.3C326.93,119.1,324.29,117.31,320.75,117.31Z" transform="translate(-181.48 -100.87)" fill="#3e6990"/><rect x="0.5" y="1.59" width="37.41" height="37.41" rx="4.6" ry="4.6" fill="#aabd8c"/><rect x="0.5" y="1.59" width="37.41" height="37.41" rx="4.6" ry="4.6" fill="none" stroke="#345995" stroke-miterlimit="10"/><line x1="25.48" y1="20.27" x2="21.66" y2="25.55" fill="none" stroke="#3e6990" stroke-miterlimit="10"/><line x1="12.05" y1="20.27" x2="15.87" y2="25.55" fill="none" stroke="#3e6990" stroke-miterlimit="10"/><circle cx="18.78" cy="30.08" r="5.39" fill="none" stroke="#3e6990" stroke-miterlimit="10" stroke-width="2"/><circle cx="9.67" cy="15.44" r="5.39" fill="none" stroke="#3e6990" stroke-miterlimit="10" stroke-width="2"/><circle cx="28.6" cy="15.39" r="5.39" fill="none" stroke="#3e6990" stroke-miterlimit="10" stroke-width="2"/><path d="M191.17,116.29c1.47,0,2.92-.11,4.32-.2s2.75-.13,4.11-.17l-.27.14c.87-1.29,1.77-2.55,2.67-3.83l2.69-3.81.36.71-4.26,0c-1.42,0-2.84,0-4.26-.05l.29-.15-2.75,3.61C193.12,113.73,192.13,115,191.17,116.29Zm0,0,5.38-7.65v0h8.63l-.06.08-5.46,7.56v0h0Z" transform="translate(-181.48 -100.87)" fill="#3e6990"/><path d="M210.06,116.27a23.67,23.67,0,0,1-2-2.62c-.6-.91-1.06-1.92-1.7-2.8l-2-2.63c-.65-.88-1.25-1.79-1.82-2.72l.17.09c-.71,0-1.43-.1-2.14-.18v0c.71-.09,1.43-.15,2.14-.18h.1l.07.09c.67.87,1.3,1.76,1.88,2.68s1.11,1.88,1.69,2.81,1.31,1.75,1.93,2.65a23.68,23.68,0,0,1,1.65,2.83Z" transform="translate(-181.48 -100.87)" fill="#3e6990"/><path d="M197.46,108.08a6.76,6.76,0,0,0-1.21.12l-1.21.26v-.76a6.35,6.35,0,0,1,1.8-.09c.6.05,1.2.23,1.8.35v.24A6.68,6.68,0,0,0,197.46,108.08Zm0,0a6.68,6.68,0,0,0,1.19-.12v.24c-.6.11-1.2.29-1.8.35a6.35,6.35,0,0,1-1.8-.09v-.76l1.21.26A6.76,6.76,0,0,0,197.46,108.08Z" transform="translate(-181.48 -100.87)" fill="#3e6990"/></svg>