<svg xmlns="http://www.w3.org/2000/svg" viewBox="0 0 153.46 40.2"><title>logo</title><path d="M238.73,139H223V100.18h13.74c7.26,0,13.08,2.34,13.08,10.68,0,4.08-2.64,6.78-6.18,7.8,4.8.66,8,3.54,8,9C251.63,136.54,245.57,139,238.73,139Zm-2-33h-6.18v10.14h7c2.64,0,4.56-1.74,4.56-5.22C242.15,108.34,241,106,236.75,106Zm1,15.9h-7.14v11.28h7.8c2.94,0,5.52-1.26,5.52-5.52S241.13,121.9,237.71,121.9Z" transform="translate(-180.31 -99.58)" fill="#3e6990"/><path d="M271.19,139c-.06-.42-1-2.64-1-3.24a9.55,9.55,0,0,1-7.68,3.9c-5.52,0-10-2.34-10-7.86s3.06-9.48,14.7-9.48h2.64v-2.1c0-3.66-1.26-6.24-5.46-6.24a20.69,20.69,0,0,0-9.36,2.4L253.67,113a29.83,29.83,0,0,1,10.8-2.1c5.64,0,9.36,2.82,9.36,8.82V130.6c0,2.16.48,5,.84,8.4Zm-1.26-13.74h-1.86c-8.64,0-11.4,2-11.4,6.42,0,3.06,2.28,4.92,6.24,4.92a7.82,7.82,0,0,0,7-3.66Z" transform="translate(-180.31 -99.58)" fill="#3e6990"/><path d="M277.55,104.86v-4.68h4.32v4.68Zm.24,34.14V111.58h3.9V139Z" transform="translate(-180.31 -99.58)" fill="#3e6990"/><path d="M301.67,139l-10-13.74V139h-6.78V99.58h6.78v22.8l9-10.8H308l-10,11.88L309.47,139Z" transform="translate(-180.31 -99.58)" fill="#3e6990"/><path d="M314.93,127.9c.54,4.38,2.82,6.84,6.6,6.84a20.3,20.3,0,0,0,8.58-2.34l2.22,5.22a28.41,28.41,0,0,1-11.28,2.16c-8.88,0-13.26-6.6-13.26-14.22,0-6.36,2.88-14.76,13-14.76,9.54,0,13,5.64,13,17.1ZM320.75,116c-2.22,0-5.58,1.32-5.82,7h12.3C326.93,117.82,324.29,116,320.75,116Z" transform="translate(-180.31 -99.58)" fill="#3e6990"/><path d="M206.63,115.7a5.18,5.18,0,0,0-2.81.83c-.43-.71-.79-1.47-1.26-2.15a20.2,20.2,0,0,0-1.48-2.1l-.08-.1h-.09c-.56,0-1.12.09-1.68.18v.05c.52.08,1,.13,1.56.17a20.09,20.09,0,0,0,1.37,2.06l.11.15-.1.14h-5.76c.42-.07.84-.21,1.27-.32h0v-.24h0a12,12,0,0,0-1.41-.35,3.92,3.92,0,0,0-1.41.09h0v.76h0a4,4,0,0,0,1.12.1l-1.19,1.69A5.21,5.21,0,1,0,197,121h1.42v0l4-5.5h.26l-.11-.21h0c.36.47.73.94,1.08,1.41a5.21,5.21,0,1,0,3-.93ZM195,120.76c-1,.08-2.1.15-3.18.18.65-.87,1.31-1.7,2-2.5A3.2,3.2,0,0,1,195,120.76Zm-3.2,3.41a3.22,3.22,0,1,1,1.84-5.86L191.77,121H195A3.22,3.22,0,0,1,191.8,124.17Zm8.42-6.46c-.67,1-1.34,1.9-2,2.87l-1.24.06a5.19,5.19,0,0,0-2-3.77l1.18-1.52c1.05,0,2.11,0,3.16,0l2.47,0Zm6.41,6.42a3.21,3.21,0,0,1-1.93-5.78c.1.19.21.37.32.55a14.59,14.59,0,0,0,1.59,2l0,0a14.6,14.6,0,0,0-1.26-2.25c-.12-.17-.25-.34-.38-.51a3.18,3.18,0,0,1,1.62-.45,3.22,3.22,0,1,1,0,6.44Z" transform="translate(-180.31 -99.58)" fill="none"/><path d="M195.81,112.18l-1.18,1.52a5.19,5.19,0,0,1,2,3.77l1.24-.06c.64-1,1.32-1.92,2-2.87l1.61-2.28-2.47,0C197.91,112.21,196.86,112.22,195.81,112.18Z" transform="translate(-180.31 -99.58)" fill="#3e6990"/><path d="M193.25,115.15a3.22,3.22,0,1,0,1.38,2.64h-3.24Z" transform="translate(-180.31 -99.58)" fill="#3e6990"/><path d="M194.61,117.59a3.2,3.2,0,0,0-1.21-2.32c-.65.81-1.32,1.64-2,2.5C192.52,117.74,193.58,117.67,194.61,117.59Z" transform="translate(-180.31 -99.58)" fill="#3e6990"/><path d="M206.24,114.53a3.18,3.18,0,0,0-1.62.45c.13.17.26.34.38.51a14.6,14.6,0,0,1,1.26,2.25l0,0a14.59,14.59,0,0,1-1.59-2c-.12-.18-.22-.36-.32-.55a3.2,3.2,0,1,0,1.93-.66Z" transform="translate(-180.31 -99.58)" fill="#3e6990"/><path d="M216.8,102.68a3.89,3.89,0,0,0-1.51-.8,4,4,0,0,0-.86-.14l-.53,0-4.09-.24c-2.73-.15-5.46-.34-8.18-.45s-5.46-.21-8.18-.26l-8.18-.1a5,5,0,0,0-5,4.94v.54l0,4.09c0,2.73.17,5.46.26,8.18.25,5.46.62,10.91.92,16.37a3.69,3.69,0,0,0,1.46,2.81,3.57,3.57,0,0,0,2.23.71l.52,0,4.09-.24c2.73-.15,5.46-.34,8.18-.45s5.46-.21,8.18-.26l8.18-.1a2.48,2.48,0,0,0,1.92-.89,2.5,2.5,0,0,0,.49-1,4.43,4.43,0,0,0,.08-1.06l0-4.09c0-2.73.17-5.46.26-8.18.26-5.46.61-10.91.91-16.37A3.8,3.8,0,0,0,216.8,102.68ZM203.94,129a18.46,18.46,0,0,1-5.1.36,26,26,0,0,1-5-.71,23.57,23.57,0,0,1-4.75-1.7l0-.09a23.3,23.3,0,0,0,4.81,1.32,25.64,25.64,0,0,0,4.94.4,33.23,33.23,0,0,0,4.89-.56,34.35,34.35,0,0,0,4.82-1.16l.05.09A12.69,12.69,0,0,1,203.94,129Zm2.31-6.07a5.21,5.21,0,0,1-3-9.51c-.35-.48-.72-.94-1.08-1.41h0l.11.21H202l-4,5.5v0h-1.42a5.24,5.24,0,1,1-2.23-4.27l1.19-1.69a4,4,0,0,1-1.12-.1h0V111h0a3.92,3.92,0,0,1,1.41-.09,12,12,0,0,1,1.41.35h0v.24h0c-.42.1-.84.25-1.27.32h5.76l.1-.14-.11-.15a20.09,20.09,0,0,1-1.37-2.06c-.52,0-1-.09-1.56-.17v-.05c.56-.09,1.12-.15,1.68-.18h.09l.08.1a20.2,20.2,0,0,1,1.48,2.1c.47.69.83,1.44,1.26,2.15a5.22,5.22,0,1,1,2.81,9.61Z" transform="translate(-180.31 -99.58)" fill="#3e6990"/></svg>