<svg xmlns="http://www.w3.org/2000/svg" viewBox="0 0 38.75 38.75"><title>symbol_white</title><circle cx="18.93" cy="29.51" r="4.58" fill="#fff"/><path d="M190.43,118h-4.6l2.64-3.76a4.58,4.58,0,1,0,2,3.75Z" transform="translate(-176.35 -103.69)" fill="#fff"/><path d="M192.41,117.73l2-.07c.87-1.29,1.78-2.56,2.67-3.83l2.29-3.24-3.54,0c-1.41,0-2.82,0-4.23,0l-1.75,2.31A6.57,6.57,0,0,1,192.41,117.73Z" transform="translate(-176.35 -103.69)" fill="#fff"/><path d="M190.34,117.82h.07a4.55,4.55,0,0,0-1.78-3.4c-.92,1.16-1.85,2.37-2.76,3.6C187.38,118,188.88,117.91,190.34,117.82Z" transform="translate(-176.35 -103.69)" fill="#fff"/><path d="M205.46,113.41a4.54,4.54,0,0,0-2.39.69c.24.31.47.62.69.94a25.4,25.4,0,0,1,1.72,2.93l0,0a25.38,25.38,0,0,1-2-2.72c-.21-.33-.41-.67-.61-1a4.57,4.57,0,1,0,2.67-.87Z" transform="translate(-176.35 -103.69)" fill="#fff"/><path d="M198.88,118a6.58,6.58,0,0,1,2.87-5.43l-.11-.17-1.49-2h0l.11.21H200L194.63,118v0h-2.19a6.58,6.58,0,0,1-3.09,5.57l2.77,3.84a6.56,6.56,0,0,1,6.32,0l3-4.21A6.57,6.57,0,0,1,198.88,118Z" transform="translate(-176.35 -103.69)" fill="#fff"/><path d="M212.81,103.69H178.65a2.3,2.3,0,0,0-2.3,2.3v34.16a2.3,2.3,0,0,0,2.3,2.3h34.16a2.3,2.3,0,0,0,2.3-2.3V106A2.3,2.3,0,0,0,212.81,103.69Zm-22.92,5.45h0a6.81,6.81,0,0,1,1.87-.09c.62.05,1.24.23,1.87.35v.24h0c-.62.11-1.24.29-1.87.35a6.81,6.81,0,0,1-1.87-.09Zm15.58,15.43a6.54,6.54,0,0,1-3.15-.8l-3,4.21a6.58,6.58,0,1,1-8,0l-2.83-3.91a6.58,6.58,0,1,1,1.17-11.43l1.78-2.53v0h8.32l.1-.15-.22-.29c-.65-.89-1.26-1.8-1.84-2.74q-1.05-.05-2.1-.17v0c.74-.09,1.48-.15,2.22-.18h.1l.07.09c.69.9,1.34,1.82,1.95,2.78s1.16,1.95,1.76,2.91l.12.18a6.58,6.58,0,1,1,3.57,12.1Z" transform="translate(-176.35 -103.69)" fill="#fff"/></svg>